<?xml version="1.0" encoding="UTF-8"?>
<svg id="_Слой_2" data-name="Слой 2" xmlns="http://www.w3.org/2000/svg" viewBox="0 0 107.13 96.74">
  <defs>
    <style>
      .cls-1 {
        fill: #fff;
      }
    </style>
  </defs>
  <g id="_Слой_1-2" data-name="Слой 1">
    <path class="cls-1" d="M53.56,79.99s10.84,19.98,27.66,16.3c16.83-3.68,16.87-17.39,13.03-25.22-3.84-7.83-16.6-10.21-20.12-3.08-3.52,7.13.18,10.4.18,10.4,0,0,1.51-6.68,6.66-5.03,5.15,1.65,7,9.67.46,12.7-8.78,4.07-14.56-3.26-16.02-10.58-1.46-7.32,2.33-16.32,12.67-18.6,10.33-2.28,16.78,1.91,21.03,7.04,4.25,5.13,3.84,10.44,3.84,10.44,0,0,13.02-17.21-6.97-25.98,19.99-8.77,6.97-25.98,6.97-25.98,0,0,.41,5.31-3.84,10.44-4.25,5.13-10.7,9.32-21.03,7.04-10.33-2.28-14.13-11.28-12.67-18.6,1.46-7.32,7.23-14.65,16.02-10.58,6.54,3.03,4.69,11.05-.46,12.7-5.15,1.65-6.66-5.03-6.66-5.03,0,0-3.7,3.26-.18,10.4,3.52,7.13,16.28,4.76,20.12-3.08,3.84-7.83,3.79-21.54-13.03-25.22-16.83-3.68-27.66,16.3-27.66,16.3,0,0-10.84-19.98-27.66-16.3C9.07,4.14,9.03,17.84,12.87,25.67c3.84,7.83,16.6,10.21,20.12,3.08,3.52-7.13-.18-10.4-.18-10.4,0,0-1.51,6.68-6.66,5.03-5.15-1.65-7-9.67-.46-12.7,8.78-4.07,14.56,3.26,16.02,10.58,1.46,7.32-2.33,16.32-12.67,18.6-10.33,2.28-16.78-1.91-21.03-7.04-4.25-5.13-3.84-10.44-3.84-10.44,0,0-13.02,17.21,6.97,25.98-19.99,8.77-6.97,25.98-6.97,25.98,0,0-.41-5.31,3.84-10.44,4.25-5.13,10.7-9.32,21.03-7.04,10.33,2.28,14.13,11.28,12.67,18.6-1.46,7.32-7.23,14.65-16.02,10.58-6.54-3.03-4.69-11.05.46-12.7,5.15-1.65,6.66,5.03,6.66,5.03,0,0,3.7-3.26.18-10.4-3.52-7.13-16.28-4.76-20.12,3.08-3.84,7.83-3.79,21.54,13.03,25.22,16.83,3.68,27.66-16.3,27.66-16.3ZM42.02,48.37l11.54-11.41,11.54,11.42-11.54,11.41-11.54-11.42Z"/>
  </g>
</svg>